<?xml version="1.0" standalone="no"?>
<!DOCTYPE svg PUBLIC "-//W3C//DTD SVG 20010904//EN"
 "http://www.w3.org/TR/2001/REC-SVG-20010904/DTD/svg10.dtd">
<svg version="1.0" xmlns="http://www.w3.org/2000/svg"
 width="96.000000pt" height="96.000000pt" viewBox="0 0 96.000000 96.000000"
 preserveAspectRatio="xMidYMid meet">
<metadata>
Created by potrace 1.14, written by Peter Selinger 2001-2017
</metadata>
<g transform="translate(0.000000,96.000000) scale(0.100000,-0.100000)"
fill="#000000" stroke="none">
<path d="M280 900 c0 -13 -7 -20 -20 -20 -13 0 -20 -7 -20 -20 0 -13 -7 -20
-20 -20 -19 0 -20 -7 -20 -220 l0 -220 -60 0 c-53 0 -60 -2 -60 -20 0 -13 -7
-20 -20 -20 -18 0 -20 -7 -20 -60 0 -53 2 -60 20 -60 13 0 20 -7 20 -20 0 -18
7 -20 60 -20 l60 0 0 -40 c0 -33 3 -40 20 -40 13 0 20 -7 20 -20 0 -19 7 -20
100 -20 93 0 100 1 100 20 0 19 7 20 160 20 153 0 160 1 160 20 0 18 7 20 60
20 53 0 60 2 60 20 0 13 7 20 20 20 20 0 20 7 20 300 0 293 0 300 -20 300 -12
0 -20 7 -20 16 0 9 -9 18 -20 21 -11 3 -20 14 -20 24 0 17 -9 19 -100 19 -93
0 -100 -1 -100 -20 0 -13 -7 -20 -20 -20 -13 0 -20 -7 -20 -20 0 -13 -7 -20
-20 -20 -13 0 -20 7 -20 20 0 13 -7 20 -20 20 -13 0 -20 7 -20 20 0 13 -7 20
-20 20 -13 0 -20 7 -20 20 0 19 -7 20 -100 20 -93 0 -100 -1 -100 -20z m120
-514 c0 -14 -36 -16 -58 -2 -5 3 -13 0 -15 -6 -3 -8 -6 -6 -6 5 -1 13 7 17 39
17 28 0 40 -4 40 -14z"/>
</g>
</svg>
